SplineFontDB: 2.0
FontName: parmesan-base
FullName: parmesan
FamilyName: parmesan
Weight: Medium
Copyright: Source file of LilyPond's pretty-but-neat music font.\nCopyright (C) 2002--2006 Juergen Reuter <reuter@ipd.uka.de>\n\nThis program is free software: you can redistribute it and/or modify\nit under the terms of the GNU General Public License as published by\nthe Free Software Foundation, either version 3 of the License, or\n(at your option) any later version.\n\nThis program is distributed in the hope that it will be useful,\nbut WITHOUT ANY WARRANTY; without even the implied warranty of\nMERCHANTABILITY or FITNESS FOR A PARTICULAR PURPOSE.  See the\nGNU General Public License for more details.\n\nYou should have received a copy of the GNU General Public License\nalong with this program.  If not, see <http://www.gnu.org/licenses/>.\n\nAs a special exception, if you create a document which uses this font,\nand embed this font or unaltered portions of this font into the document,\nthis font does not by itself cause the resulting document to be covered by\nthe GNU General Public License. This exception does not however invalidate\nany other reasons why the document might be covered by the GNU General Public\nLicense. If you modify this font, you may extend this exception to your\nversion of the font, but you are not obligated to do so. If you do not wish\nto do so, delete this exception statement from your version.
Comments: 2007-4-12: Created.
Version: 1.0
ItalicAngle: 0
UnderlinePosition: -204
UnderlineWidth: 102
Ascent: 800
Descent: 200
NeedsXUIDChange: 1
XUID: [1021 341 828717519 1678204]
OS2Version: 0
OS2_WeightWidthSlopeOnly: 0
OS2_UseTypoMetrics: 1
CreationTime: 1176402534
ModificationTime: 1187704266
OS2TypoAscent: 0
OS2TypoAOffset: 1
OS2TypoDescent: 0
OS2TypoDOffset: 1
OS2TypoLinegap: 0
OS2WinAscent: 0
OS2WinAOffset: 1
OS2WinDescent: 0
OS2WinDOffset: 1
HheadAscent: 0
HheadAOffset: 1
HheadDescent: 0
HheadDOffset: 1
OS2Vendor: 'PfEd'
Encoding: Custom

StartChar: _0017
Encoding: 0 66 0
Width: 161
Flags: HW
TeX: 0 0 0 0
HStem: -476.55 17.1 -117.45 17.1 241.65 17.1 600.75 17.1
Fore
17.0254 -21.7686 m 1
 7.86523 -21.7686 0.384766 -13.7842 0 -4.66504 c 1
 0 130.972 l 1
 0 157.191 69.7402 163.997 80 163.997 c 0
 91.4004 163.997 161 157.157 161 130.938 c 6
 161 -4.66895 l 2
 161 -13.7881 152.685 -21.7686 143.564 -21.7686 c 0
 134.445 -21.7686 118.485 -5.80859 79.7246 -5.80859 c 0
 44.3848 -5.80859 23.8652 -21.7686 17.0254 -21.7686 c 1
EndSplineSet
EndChar
StartChar: _0019
Encoding: 1 67 1
Width: 178
Flags: HW
TeX: 0 0 0 0
HStem: -476.247 17.1 -117.147 17.1 241.953 17.1 601.053 17.1
Fore
2.66895 64.7061 m 2
 1.52832 66.9863 0.388672 70.4062 0.388672 72.6865 c 0
 0.388672 74.9668 1.52832 78.3867 2.66895 80.667 c 2
 77.9082 193.526 l 2
 80.1885 198.087 84.749 200.366 89.3086 200.366 c 0
 93.8682 200.366 98.4287 198.087 101.849 193.526 c 2
 175.72 80.5459 l 5
 178 78.2656 178 74.8457 178 72.5654 c 4
 178 70.2852 178.202 66.8652 175.922 64.585 c 5
 101.849 -48.1533 l 2
 98.4287 -52.7139 93.8682 -54.9932 89.3086 -54.9932 c 0
 84.749 -54.9932 80.1885 -52.7139 77.9082 -48.1533 c 2
 2.66895 64.7061 l 2
EndSplineSet
EndChar
StartChar: _0020
Encoding: 2 68 2
Width: 169
Flags: HW
TeX: 0 0 0 0
HStem: -466.26 17.1 -107.16 17.1 251.94 17.1 611.04 17.1
Fore
68.4004 192.621 m 2
 70.6807 197.182 75.2402 199.461 79.8008 199.461 c 0
 83.2207 199.461 85.5 198.321 87.7803 196.041 c 1
 90.0605 196.041 91.2002 193.762 92.3408 192.621 c 2
 166.721 79.7578 l 5
 169.001 77.4775 169.001 74.0576 169.001 71.7773 c 4
 169.001 69.4971 169.001 66.0771 166.721 63.7969 c 5
 92.3408 -49.0586 l 2
 90.0605 -52.4785 86.6406 -54.7588 82.0801 -55.8984 c 1
 79.8008 -55.8984 l 2
 77.5205 -55.8984 74.1006 -54.7588 71.8203 -52.4785 c 1
 70.6807 -52.4785 69.54 -50.1992 68.4004 -49.0586 c 2
 55.8604 -29.6787 l 1
 60.4199 -30.8184 63.8408 -29.6787 67.2607 -27.3984 c 0
 74.1006 -22.8389 76.3799 -11.4385 72.96 2.24121 c 0
 70.6807 15.9209 63.8408 33.0215 52.4404 47.8408 c 0
 42.1807 63.8008 29.6406 76.3408 17.1006 83.1816 c 0
 10.2607 86.6016 4.56055 88.8809 0 90.0215 c 1
 68.4004 192.621 l 2
EndSplineSet
EndChar
StartChar: _0026
Encoding: 3 69 3
Width: 161
Flags: HW
TeX: 0 0 0 0
HStem: -477.6 17.1 -118.5 17.1 240.6 17.1 599.7 17.1
Fore
57 11.0342 m 1
 54.7197 -17.4658 47.8799 -33.4258 42.1797 -33.4258 c 0
 41.04 -33.4258 39.9004 -32.2861 37.6201 -31.1465 c 1
 12.54 -6.06641 l 2
 4.56055 3.05371 0 34.9736 0 62.334 c 0
 0 78.2939 3.41992 133.014 17.1006 133.014 c 0
 18.2402 133.014 19.3799 131.874 20.5205 130.734 c 2
 30.7803 120.474 l 1
 34.2002 146.694 39.9004 161.514 45.6006 161.514 c 0
 46.7402 161.514 47.8799 160.374 49.0205 160.374 c 1
 80.9404 136.434 l 1
 83.2197 162.654 90.0605 177.474 95.7598 177.474 c 0
 96.9004 177.474 98.04 176.334 99.1797 176.334 c 1
 120.84 158.094 l 1
 124.26 183.174 129.96 196.854 136.8 196.854 c 0
 142.5 196.854 148.2 183.174 150.48 160.374 c 2
 158.46 103.374 l 2
 159.601 93.1143 161 80.5254 161 69.125 c 4
 161 53.165 157.32 -1.50586 143.64 -1.50586 c 0
 142.5 -1.50586 141.36 -0.366211 141.36 -0.366211 c 1
 110.58 23.5742 l 1
 108.3 -2.64648 101.46 -17.4658 95.7598 -17.4658 c 0
 94.6201 -17.4658 93.4805 -16.3262 92.3398 -16.3262 c 1
 57 11.0342 l 1
EndSplineSet
EndChar
StartChar: _0028
Encoding: 4 70 4
Width: 192
Flags: HW
TeX: 0 0 0 0
HStem: -473.822 17.1 -114.722 17.1 244.378 17.1 603.478 17.1
Fore
177.181 -42.0859 m 0
 168.061 -42.0859 174.9 -7.88574 140.7 -7.88574 c 0
 109.92 -7.88574 91.6807 -40.9463 59.7598 -40.9463 c 0
 34.6807 -40.9463 13.0205 -20.4258 6.18066 6.93359 c 0
 2.75977 24.0342 0.0136719 51.3848 0.0136719 69.625 c 4
 0.0136719 87.8652 3.90039 149.435 15.2998 149.435 c 0
 25.5605 149.435 17.5801 115.234 51.7803 115.234 c 0
 82.5605 115.234 101.94 148.294 132.721 148.294 c 0
 158.94 148.294 179.46 127.774 186.3 100.414 c 0
 190.86 83.3135 192 55.9541 192 37.7139 c 0
 192 19.4736 188.58 -42.0859 177.181 -42.0859 c 0
EndSplineSet
EndChar
StartChar: _0027
Encoding: 5 71 5
Width: 192
Flags: HW
TeX: 0 0 0 0
HStem: -473.822 17.1 -114.722 17.1 244.378 17.1 603.478 17.1
Fore
14.833 -42.0859 m 0
 3.43359 -42.0859 0.0136719 19.4736 0.0136719 37.7139 c 0
 0.0136719 55.9541 1.15332 83.3135 5.71387 100.414 c 0
 12.5537 127.774 33.0732 148.294 59.293 148.294 c 0
 90.0732 148.294 109.453 115.234 140.233 115.234 c 0
 174.434 115.234 166.453 149.435 176.714 149.435 c 0
 188.113 149.435 192 87.8652 192 69.625 c 4
 192 51.3848 189.254 24.0342 185.833 6.93359 c 0
 178.993 -20.4258 157.333 -40.9463 132.254 -40.9463 c 0
 100.333 -40.9463 82.0938 -7.88574 51.3135 -7.88574 c 0
 17.1133 -7.88574 23.9531 -42.0859 14.833 -42.0859 c 0
EndSplineSet
EndChar
StartChar: _0006
Encoding: 6 72 6
Width: 159
VWidth: 1120
Flags: HW
TeX: 0 0 0 0
HStem: -485.3 17.1 -126.2 17.1 232.9 17.1 592 17.1
Fore
7.98047 312.92 m 0
 14.8203 312.92 15.9609 287.84 15.9609 281 c 2
 15.9609 60.9795 l 2
 15.9609 55.2803 96.9004 1.7002 126.54 1.7002 c 0
 135.66 1.7002 142.5 6.25977 142.5 15.3799 c 2
 142.5 30.2002 l 2
 142.5 74.6602 53.5801 72.3799 44.4609 105.439 c 0
 43.3203 111.14 42.1807 119.12 42.1807 127.1 c 0
 42.1807 133.939 44.4609 157.88 50.1602 157.88 c 0
 53.5801 157.88 54.7207 152.18 78.6602 141.92 c 0
 129.961 117.979 159 109.873 159 59.7129 c 6
 159 -16.667 l 6
 159 -41.7471 152.761 -57.5801 127.681 -57.5801 c 0
 92.3408 -57.5801 14.8203 -10.8398 5.7002 0.55957 c 0
 2.28027 3.97949 0 15.3799 0 30.2002 c 2
 0 281 l 2
 0 287.84 1.14062 312.92 7.98047 312.92 c 0
EndSplineSet
EndChar
StartChar: queue
Encoding: 7 153 7
Width: 22
VWidth: 2048
Flags: HW
TeX: 0 0 0 0
HStem: -409 15 -94 15 221 15 536 15
Fore
0 -165.5 m 9
 0 -5 l 25
 22 -5 l 25
 22 -157.5 l 17
 17.5928 -163.278 8.15723 -163.709 0 -165.5 c 9
EndSplineSet
EndChar
StartChar: _0032
Encoding: 8 74 8
Width: 112
VWidth: 1131
Flags: HW
TeX: 0 0 0 0
HStem: -474.94 17.1 -115.84 17.1 243.26 17.1 602.36 17.1
Fore
2.31348 54.8389 m 1
 1.17383 58.2598 0.0332031 60.5391 0.0332031 62.8193 c 0
 0.0332031 65.0996 1.17383 68.5195 2.31348 70.7998 c 2
 43.3535 135.779 l 2
 46.7734 140.339 51.334 142.619 55.8936 142.619 c 0
 60.4531 142.619 65.0137 140.339 68.4336 135.779 c 2
 109.72 70.8086 l 2
 110.859 68.5283 112 66.248 112 62.8281 c 0
 112 60.5479 110.859 57.1279 109.72 54.8477 c 2
 68.4336 -10.1406 l 2
 65.0137 -14.7002 60.4531 -16.9805 55.8936 -16.9805 c 0
 51.334 -16.9805 46.7734 -14.7002 43.3535 -10.1406 c 2
 2.31348 54.8389 l 1
EndSplineSet
EndChar
StartChar: _0011
Encoding: 9 75 9
Width: 19
VWidth: 2048
Flags: HW
TeX: 0 0 0 0
HStem: -409 15 -94 15 221 15 536 15
Fore
0 550.999 m 25
 19 551 l 25
 18.9912 -408.997 l 25
 0 -409.002 l 29
 0 550.999 l 25
EndSplineSet
EndChar
StartChar: _0008
Encoding: 10 76 10
Width: 152
VWidth: 2048
Flags: HW
TeX: 0 0 0 0
HStem: -409 15 -94 15 221 15 536 15
Fore
152.337 553.333 m 1
 152.337 497.678 67 439 0 418.998 c 1
 46 458 152.5 495.998 120 561.998 c 1
 124.5 530.998 17 510.498 17 572.998 c 1
 17 597.998 49 612.998 75 612.998 c 1
 122.5 613.998 152.337 586.678 152.337 553.333 c 1
EndSplineSet
EndChar
StartChar: _0001
Encoding: 11 77 11
Width: 143
VWidth: 1107
Flags: HW
TeX: 0 0 0 0
HStem: -499.02 17.1 -139.92 17.1 219.18 17.1 578.28 17.1
Fore
86.6406 291.006 m 0
 51.3008 291.006 20.5205 265.926 20.5205 234.006 c 0
 20.5205 202.086 51.3008 177.006 86.6406 177.006 c 0
 114.001 177.006 127.681 192.966 132.241 192.966 c 0
 140.221 192.966 143 125.74 143 107.5 c 0
 143 76.7197 139.081 26.5254 133.381 21.9658 c 0
 119.701 11.7061 103.741 6.00586 86.6406 6.00586 c 0
 53.5811 6.00586 9.12109 33.3662 2.28125 101.766 c 0
 1.14062 116.586 0.000976562 135.966 0.000976562 155.346 c 2
 0.000976562 312.666 l 2
 0.000976562 325.206 -9.11914 442.626 70.6807 460.866 c 0
 76.3809 462.006 82.0811 462.006 86.6406 462.006 c 0
 103.741 462.006 119.701 456.306 133.381 446.046 c 0
 142.501 439.206 143 361.64 143 360.5 c 4
 143 342.26 140.221 275.046 132.241 275.046 c 0
 127.681 275.046 114.001 291.006 86.6406 291.006 c 0
EndSplineSet
EndChar
StartChar: _0023
Encoding: 12 78 12
Width: 161
Flags: HW
TeX: 0 0 0 0
HStem: -409 15 -94 15 221 15 536 15
Fore
160.992 -224.002 m 5
 160.992 -224.002 142.5 -223.375 138.875 -220.875 c 5
 139 -21.5 l 5
 126.333 -9.33301 118.485 -5.80859 79.7246 -5.80859 c 4
 44.3848 -5.80859 23.8652 -21.7686 17.0254 -21.7686 c 5
 7.86523 -21.7686 0.384766 -13.7842 0 -4.66504 c 5
 0 130.972 l 5
 0 157.191 69.7402 163.997 80 163.997 c 4
 91.4004 163.997 161 157.157 161 130.938 c 6
 160.992 -224.002 l 5
EndSplineSet
EndChar
StartChar: _0025
Encoding: 13 79 13
Width: 161
Flags: HW
TeX: 0 0 0 0
HStem: -409 15 -94 15 221 15 536 15
Fore
0.0078125 -224.002 m 5
 0 130.938 l 6
 0 157.157 69.5996 163.997 81 163.997 c 4
 91.2598 163.997 161 157.191 161 130.972 c 5
 161 -4.66504 l 5
 160.615 -13.7842 153.135 -21.7686 143.975 -21.7686 c 5
 137.135 -21.7686 116.615 -5.80859 81.2754 -5.80859 c 4
 42.5146 -5.80859 34.6667 -9.33333 22 -21.5 c 5
 22.125 -220.875 l 5
 18.5 -223.375 0.0078125 -224.002 0.0078125 -224.002 c 5
EndSplineSet
EndChar
StartChar: _0009
Encoding: 14 73 14
AltUni: 80
Width: 19
VWidth: 2048
Flags: HW
TeX: 0 0 0 0
HStem: -409 15 -94 15 221 15 536 15
Fore
0 359.128 m 9
 0.00292969 719.984 l 25
 18.999 720.021 l 25
 19 352.431 l 17
 6.04348 352.565 2.43478 355.609 0 359.128 c 9
EndSplineSet
EndChar
StartChar: _0010
Encoding: 15 81 15
Width: 19
VWidth: 2048
Flags: HW
TeX: 0 0 0 0
HStem: -409 15 -94 15 221 15 536 15
Fore
0 -296.375 m 13
 0 383.125 l 21
 3.87305 385.802 10.75 386.375 19 386.5 c 13
 19 -293.375 l 21
 14.875 -293.5 5 -293.375 0 -296.375 c 13
EndSplineSet
EndChar
StartChar: _0024
Encoding: 16 83 16
Width: 161
Flags: HW
TeX: 0 0 0 0
HStem: -409 15 -94 15 221 15 536 15
Fore
0.382812 -355.627 m 5
 0 130.938 l 6
 0 157.157 69.5996 163.997 81 163.997 c 4
 91.2598 163.997 161 157.191 161 130.972 c 5
 161 -4.66504 l 5
 160.615 -13.7842 153.135 -21.7686 143.975 -21.7686 c 5
 137.135 -21.7686 116.615 -5.80859 81.2754 -5.80859 c 4
 42.5146 -5.80859 34.6667 -9.33333 22 -21.5 c 5
 22.5 -352.5 l 5
 18.875 -355 0.382812 -355.627 0.382812 -355.627 c 5
EndSplineSet
EndChar
StartChar: pesdeminutus
Encoding: 17 84 17
Width: 161
Flags: HW
TeX: 0 0 0 0
HStem: 536.228 15 221.228 15 -93.7716 15 -408.772 15
Fore
161 163.729 m 5
 161 11.29 l 6
 161 -14.9287 91.4004 -21.7686 80 -21.7686 c 4
 69.7402 -21.7686 0 -14.9629 0 11.2568 c 5
 0 146.894 l 5
 0.384766 156.013 7.86523 163.997 17.0254 163.997 c 5
 23.8652 163.997 44.3848 148.037 79.7246 148.037 c 4
 118.485 148.037 130.5 162.729 139 163.729 c 4
 140.905 163.952 161 163.729 161 163.729 c 5
EndSplineSet
EndChar
StartChar: auctusd1
Encoding: 18 85 18
Width: 161
Flags: HW
TeX: 0 0 0 0
HStem: -474.265 17.1 -115.165 17.1 243.935 17.1 603.035 17.1
Fore
17.0967 -4.60059 m 4x40
 7.97656 -4.60059 -0.00390625 2.23926 -0.00390625 11.3594 c 6
 0 179 l 5
 22 179.001 l 5
 44.7998 185.841 56.9961 188.06 79.7959 188.06 c 4
 129.956 188.06 161 136.18 161 82.5996 c 6x80
 161 -67.8799 l 6
 161 -75.8604 152.756 -84.4014 143.636 -84.4014 c 4
 134.517 -84.4014 127.676 -76.4209 127.676 -68.4404 c 4
 127.676 -31.9609 111.716 4.51953 79.7959 4.51953 c 4
 42.1758 4.51953 22.7959 -4.60059 17.0967 -4.60059 c 4x40
EndSplineSet
EndChar
StartChar: auctusa1
Encoding: 19 86 19
Width: 161
Flags: HW
TeX: 0 0 0 0
HStem: -473.75 17.1 -114.65 17.1 244.45 17.1 603.55 17.1
Fore
143.64 222.49 m 0x40
 152.76 222.49 161 214.46 161 206.479 c 2x40
 161 56 l 2
 161 2.41992 129.96 -49.9707 79.7998 -49.9707 c 0
 59.2803 -49.9707 13.6797 -44.2705 4.56055 -35.1504 c 0
 2.28027 -31.7305 0 -27.1699 0 -23.75 c 2
 0 152 l 1x80
 18.3125 152 0.9375 152 22 152 c 1
 22 141.812 22 148.875 22 141.792 c 1
 32 135 49.4831 133.569 79.7998 133.569 c 0
 111.72 133.569 127.68 170.05 127.68 206.529 c 0
 127.68 214.51 134.521 222.49 143.64 222.49 c 0x40
EndSplineSet
EndChar
StartChar: mdeminutus
Encoding: 20 87 20
Width: 161
Flags: HW
TeX: 0 0 0 0
HStem: -476.55 17.1 -117.45 17.1 241.65 17.1 600.75 17.1
Fore
161 -21.5 m 1
 161 -21.5 140.905 -21.7241 139 -21.5 c 0
 130.5 -20.5 118.485 -5.80859 79.7246 -5.80859 c 0
 44.3848 -5.80859 28.8398 -21.2949 22 -21.2949 c 5
 12.8398 -21.2949 15.5449 -21.2949 0 -21.2949 c 5
 0 130.972 l 1
 0 157.191 69.7402 163.997 80 163.997 c 0
 91.4004 163.997 161 157.157 161 130.938 c 2
 161 -21.5 l 1
EndSplineSet
EndChar
StartChar: _0007
Encoding: 21 88 21
Width: 141
VWidth: 1129
Flags: HW
TeX: 0 0 0 0
HStem: -476.34 17.1 -117.24 17.1 241.86 17.1 600.96 17.1
Fore
13.6797 288.92 m 0
 22.7998 288.92 27.3594 269.54 27.3594 257 c 2
 27.3594 133.88 l 1
 114.776 181.818 l 5
 115.916 192.078 120.477 203.478 127.316 203.478 c 4
 136.437 203.478 140.996 184.098 140.996 172.698 c 6
 140.996 -112.302 l 6
 140.996 -124.842 136.437 -144.222 127.316 -144.222 c 4
 118.196 -144.222 113.637 -124.842 113.637 -112.302 c 6
 113.637 10.8184 l 5
 26.2197 -37.1201 l 1
 25.0801 -47.3799 20.5195 -58.7793 13.6797 -58.7793 c 0
 4.55957 -58.7793 0 -39.3994 0 -28 c 2
 0 257 l 2
 0 269.54 4.55957 288.92 13.6797 288.92 c 0
113.637 119.118 m 5
 27.3594 71.1807 l 1
 27.3594 25.5801 l 1
 113.637 73.5176 l 5
 113.637 119.118 l 5
EndSplineSet
EndChar
StartChar: _0002
Encoding: 22 89 22
Width: 299
VWidth: 1119
Flags: HW
TeX: 0 0 0 0
HStem: -486.91 17.1 -127.81 17.1 231.29 17.1 590.39 17.1
Fore
242.82 303 m 0
 208.62 303 176.7 277.92 176.7 246 c 0
 176.7 214.08 208.62 189 242.82 189 c 0
 270.18 189 285 204.96 289.56 204.96 c 0
 297.54 204.96 299 137.604 299 119.363 c 0
 299 88.583 296.4 38.5195 290.7 33.96 c 0
 277.02 23.7002 259.92 18 243.96 18 c 0
 209.76 18 165.3 45.3604 159.6 113.76 c 0
 157.32 128.58 156.18 147.96 156.18 167.34 c 2
 156.18 324.66 l 2
 156.18 337.2 148.2 454.62 228 472.86 c 0
 233.7 474 238.26 474 243.96 474 c 0
 259.92 474 277.02 468.3 290.7 458.04 c 0
 299.82 451.2 299 373.504 299 372.364 c 4
 299 354.124 297.54 287.04 289.56 287.04 c 0
 285 287.04 270.18 303 242.82 303 c 0
10.2598 175.32 m 1
 2.28027 175.32 0 231.18 0 246 c 0
 0 259.68 1.13965 312.12 9.12012 316.68 c 0
 25.0801 326.94 43.3203 331.5 61.5596 331.5 c 0
 91.2002 331.5 116.28 320.1 133.38 301.86 c 0
 141.36 295.02 142.5 240.3 142.5 231.18 c 2
 142.5 -171.24 l 2
 142.5 -176.94 137.94 -181.5 132.24 -181.5 c 0
 126.54 -181.5 121.979 -176.94 121.979 -171.24 c 2
 121.979 168.48 l 1
 99.1797 186.72 74.0996 189 62.7002 189 c 0
 33.0596 189 10.2598 175.32 10.2598 175.32 c 1
EndSplineSet
EndChar
StartChar: _0063
Encoding: 23 90 23
Width: 76
VWidth: 1160
Flags: HW
TeX: 0 0 0 0
HStem: -446.1 17.1 -87 17.1 272.1 17.1 631.2 17.1
Fore
76.6904 -320.08 m 6
 76.6904 -325.78 72.1299 -330.34 66.4297 -330.34 c 4
 60.7305 -330.34 56.1699 -325.78 56.1699 -320.08 c 6
 56.1699 17.3604 l 5
 53.8896 17.3604 l 6
 32.2305 17.3604 18.5498 -3.16016 0.30957 -14.5596 c 5
 0.30957 164.42 l 5
 18.5498 174.68 32.2305 196.34 53.8896 196.34 c 6
 76.6904 196.34 l 5
 76.6904 -320.08 l 6
EndSplineSet
EndChar
StartChar: _0064
Encoding: 24 91 24
Width: 76
VWidth: 1151
Flags: HW
TeX: 0 0 0 0
HStem: -454.85 17.1 -95.75 17.1 263.35 17.1 622.45 17.1
Fore
76.6904 -184.33 m 6
 76.6904 -190.03 72.1299 -194.59 66.4297 -194.59 c 4
 60.7305 -194.59 56.1699 -190.03 56.1699 -184.33 c 6
 56.1699 10.6104 l 5
 53.8896 10.6104 l 6
 32.2305 10.6104 18.5498 -9.91016 0.30957 -21.3096 c 5
 0.30957 157.67 l 5
 18.5498 167.93 32.2305 189.59 53.8896 189.59 c 6
 76.6904 189.59 l 5
 76.6904 -184.33 l 6
EndSplineSet
EndChar
StartChar: _0060
Encoding: 25 92 25
Width: 76
VWidth: 1119
Flags: HW
TeX: 0 0 0 0
HStem: 953.97 17.1 594.87 17.1 235.77 17.1 -123.33 17.1
Fore
0.30957 -17.4199 m 1
 0.30957 161.56 l 1
 18.5498 150.16 32.2305 129.64 53.8896 129.64 c 2
 56.1699 129.64 l 1
 56.1699 467.08 l 2
 56.1699 472.78 60.7305 477.34 66.4297 477.34 c 0
 72.1299 477.34 76.6904 472.78 76.6904 467.08 c 2
 76.6904 -49.3398 l 5
 53.8896 -49.3398 l 2
 32.2305 -49.3398 18.5498 -27.6797 0.30957 -17.4199 c 1
EndSplineSet
EndChar
StartChar: _0061
Encoding: 26 93 26
Width: 76
VWidth: 1128
Flags: HW
TeX: 0 0 0 0
HStem: 1080.14 17.1 721.04 17.1 361.94 17.1 2.84 17.1
Fore
0.30957 -13.6699 m 5
 0.30957 165.31 l 5
 18.5498 153.91 32.2305 133.39 53.8896 133.39 c 6
 56.1699 133.39 l 5
 56.1699 328.33 l 6
 56.1699 334.03 60.7305 338.59 66.4297 338.59 c 4
 72.1299 338.59 76.6904 334.03 76.6904 328.33 c 6
 76.6904 -45.5898 l 5
 53.8896 -45.5898 l 6
 32.2305 -45.5898 18.5498 -23.9297 0.30957 -13.6699 c 5
EndSplineSet
EndChar
StartChar: base2
Encoding: 27 94 27
Width: 161
Flags: HW
TeX: 0 0 0 0
HStem: -476.55 17.1 -117.45 17.1 241.65 17.1 600.75 17.1
Fore
161 -21.5 m 1
 161 -21.5 140.645 -22.4869 139 -21.5 c 0
 129 -15.5 118.485 -5.80859 79.7246 -5.80859 c 0
 44.3848 -5.80859 23.8652 -21.7686 17.0254 -21.7686 c 1
 7.86523 -21.7686 0.384766 -13.7842 0 -4.66504 c 1
 0 130.972 l 1
 0 157.191 69.7402 163.997 80 163.997 c 0
 91.4004 163.997 161 157.157 161 130.938 c 2
 161 -21.5 l 1
EndSplineSet
EndChar
StartChar: base4
Encoding: 28 95 28
Width: 161
Flags: HW
TeX: 0 0 0 0
HStem: -476.55 17.1 -117.45 17.1 241.65 17.1 600.75 17.1
Fore
0 -21.5 m 1
 0 130.938 l 2
 0 157.157 69.5996 163.997 81 163.997 c 0
 91.2598 163.997 161 157.191 161 130.972 c 1
 161 -4.66504 l 1
 160.615 -13.7842 153.135 -21.7686 143.975 -21.7686 c 1
 137.135 -21.7686 116.615 -5.80859 81.2754 -5.80859 c 0
 42.5146 -5.80859 32.5 -13.5 22 -21.5 c 0
 20.4743 -22.6624 0 -21.5 0 -21.5 c 1
EndSplineSet
EndChar
StartChar: base7
Encoding: 29 96 29
Width: 161
Flags: HW
TeX: 0 0 0 0
HStem: -476.55 17.1 -117.45 17.1 241.65 17.1 600.75 17.1
Fore
17.0254 -21.7686 m 1
 7.86523 -21.7686 0.384766 -13.7842 0 -4.66504 c 1
 0 152.5 l 5
 22 152.636 0 152.5 22 152.702 c 5
 43.3739 161.288 73.5266 163.997 80 163.997 c 0
 91.4004 163.997 161 157.157 161 130.938 c 2
 161 -4.66895 l 2
 161 -13.7881 152.685 -21.7686 143.564 -21.7686 c 0
 134.445 -21.7686 118.485 -5.80859 79.7246 -5.80859 c 0
 44.3848 -5.80859 23.8652 -21.7686 17.0254 -21.7686 c 1
EndSplineSet
EndChar
StartChar: base5
Encoding: 30 97 30
Width: 161
Flags: HW
TeX: 0 0 0 0
HStem: -476.55 17.1 -117.45 17.1 241.65 17.1 600.75 17.1
Fore
143.975 -21.7686 m 5
 137.135 -21.7686 116.615 -5.80859 81.2754 -5.80859 c 4
 42.5146 -5.80859 26.5547 -21.7686 17.4355 -21.7686 c 4
 8.31543 -21.7686 0 -13.7881 0 -4.66895 c 6
 0 130.938 l 6
 0 157.157 69.5996 163.997 81 163.997 c 4
 87.4736 163.997 117.626 161.288 139 152.702 c 5
 161 152.5 139 152.637 161 152.5 c 5
 161 -4.66504 l 5
 160.615 -13.7842 153.135 -21.7686 143.975 -21.7686 c 5
EndSplineSet
EndChar
StartChar: base3
Encoding: 31 98 31
Width: 161
Flags: HW
TeX: 0 0 0 0
HStem: -476.55 17.1 -117.45 17.1 241.65 17.1 600.75 17.1
Fore
161 -21.5 m 1
 161 -21.5 140.534 -22.6509 139 -21.5 c 4
 131 -15.5 118.485 -5.80859 79.7246 -5.80859 c 0
 44.3848 -5.80859 33.5 -16.5 22 -21.2949 c 1
 12.8398 -21.2949 15.5449 -21.2949 0 -21.2949 c 1
 0 130.972 l 1
 0 157.191 69.7402 163.997 80 163.997 c 0
 91.4004 163.997 161 157.157 161 130.938 c 2
 161 -21.5 l 1
EndSplineSet
EndChar
StartChar: base6
Encoding: 32 99 32
Width: 161
Flags: HW
TeX: 0 0 0 0
HStem: -476.55 17.1 -117.45 17.1 241.65 17.1 600.75 17.1
Fore
17.0254 -21.7686 m 1
 7.86523 -21.7686 0.384766 -13.7842 0 -4.66504 c 1
 0 152.5 l 1
 22 152.636 0 152.5 22 152.702 c 1
 43.3739 161.288 73.5266 163.997 80 163.997 c 0
 87.1947 163.997 117.569 161.1 139 152.5 c 1
 161 152.455 139 152.455 161 152.5 c 1
 161 -4.66895 l 2
 161 -13.7881 152.685 -21.7686 143.564 -21.7686 c 0
 134.445 -21.7686 118.485 -5.80859 79.7246 -5.80859 c 0
 44.3848 -5.80859 23.8652 -21.7686 17.0254 -21.7686 c 1
EndSplineSet
EndChar
StartChar: line2
Encoding: 33 100 33
Width: 22
VWidth: 2048
Flags: HW
TeX: 0 0 0 0
HStem: -409 15 -94 15 221 15 536 15
Fore
0 -11.5 m 25
 0 146 l 25
 22 146 l 25
 22 -11.5 l 25
 0 -11.5 l 25
EndSplineSet
EndChar
StartChar: line3
Encoding: 34 101 34
Width: 22
VWidth: 2048
Flags: HW
TeX: 0 0 0 0
HStem: -420.5 15 -105.5 15 209.5 15 524.5 15
Fore
0 -11.5 m 25
 0 303.5 l 25
 22 303.5 l 25
 22 -11.5 l 25
 0 -11.5 l 25
EndSplineSet
EndChar
StartChar: line4
Encoding: 35 102 35
Width: 22
VWidth: 2048
Flags: HW
TeX: 0 0 0 0
HStem: -420.5 15 -105.5 15 209.5 15 524.5 15
Fore
0 -11.5 m 25
 0 453.5 l 25
 22 453.5 l 25
 22 -11.5 l 25
 0 -11.5 l 25
EndSplineSet
EndChar
StartChar: line5
Encoding: 36 103 36
Width: 22
VWidth: 2048
Flags: HW
TeX: 0 0 0 0
HStem: -420.5 15 -105.5 15 209.5 15 524.5 15
Fore
0 -11.5 m 25
 0 619.5 l 25
 22 619.5 l 25
 22 -11.5 l 25
 0 -11.5 l 25
EndSplineSet
EndChar
StartChar: vsbase
Encoding: 37 104 37
Width: 161
Flags: HW
TeX: 0 0 0 0
HStem: -409 15 -94 15 221 15 536 15
Fore
0.0078125 -224.002 m 1
 0 130.938 l 2
 0 157.157 69.5996 163.997 81 163.997 c 0
 91.2598 163.997 161 157.191 161 130.972 c 1
 161 -30.6738 l 1
 143.833 -31 151.333 -30.8333 138.996 -31.0049 c 1
 139 -24 139 -27.8333 139.004 -23.002 c 1
 133.667 -17.8333 116.615 -5.80859 81.2754 -5.80859 c 0
 42.5146 -5.80859 34.6667 -9.33333 22 -21.5 c 1
 22.125 -220.875 l 1
 18.5 -223.375 0.0078125 -224.002 0.0078125 -224.002 c 1
EndSplineSet
EndChar
StartChar: vbase
Encoding: 38 -1 38
Width: 161
Flags: HW
TeX: 0 0 0 0
HStem: -409 15 -94 15 221 15 536 15
Fore
160.992 -224.002 m 1
 160.992 -224.002 142.5 -223.375 138.875 -220.875 c 1
 139 -21.5 l 1
 126.333 -9.33301 118.485 -5.80859 79.7246 -5.80859 c 0
 44.3848 -5.80859 27.333 -17.833 21.9961 -23.002 c 1
 22 -27.833 22 -24 22.0039 -31.0049 c 1
 9.66699 -30.833 17.167 -31 0 -30.6738 c 1
 0 130.972 l 1
 0 157.191 69.7402 163.997 80 163.997 c 0
 91.4004 163.997 161 157.157 161 130.938 c 2
 160.992 -224.002 l 1
EndSplineSet
EndChar
StartChar: vlbase
Encoding: 39 -1 39
Width: 161
Flags: HW
TeX: 0 0 0 0
HStem: -409 15 -94 15 221 15 536 15
Fore
0 -363 m 5
 0 130.938 l 1
 0 157.157 69.5996 163.997 81 163.997 c 0
 91.2598 163.997 161 157.191 161 130.972 c 1
 161 -30.6738 l 1
 143.833 -31 151.333 -30.8333 138.996 -31.0049 c 1
 139 -24 139 -27.8333 139.004 -23.002 c 1
 133.667 -17.8333 116.615 -5.80859 81.2754 -5.80859 c 0
 42.5146 -5.80859 34.6667 -9.33333 22 -21.5 c 1
 22.1172 -359.873 l 5
 18.4922 -362.373 0 -363 0 -363 c 5
EndSplineSet
EndChar
StartChar: qbase
Encoding: 40 -1 40
Width: 161
Flags: HW
TeX: 0 0 0 0
HStem: -477.6 17.1 -118.5 17.1 240.6 17.1 599.7 17.1
Fore
57 11.0342 m 1
 54.7197 -17.4658 47.8799 -33.4258 42.1797 -33.4258 c 0
 41.04 -33.4258 39.9004 -32.2861 37.6201 -31.1465 c 1
 12.54 -6.06641 l 2
 4.56055 3.05371 0 34.9736 0 62.334 c 0
 0 78.2939 3.41992 133.014 17.1006 133.014 c 0
 18.2402 133.014 19.3799 131.874 20.5205 130.734 c 2
 30.7803 120.474 l 1
 34.2002 146.694 39.9004 161.514 45.6006 161.514 c 0
 46.7402 161.514 47.8799 160.374 49.0205 160.374 c 1
 80.9404 136.434 l 1
 83.2197 162.654 90.0605 177.474 95.7598 177.474 c 0
 96.9004 177.474 98.04 176.334 99.1797 176.334 c 1
 123.04 158.573 l 1
 136 159 137 174 139 183.023 c 1
 144.699 183.023 148 183 161 182.333 c 1
 161 103.333 l 2
 162.141 93.0732 161 80.5254 161 69.125 c 0
 161 53.165 157.32 -1.50586 143.64 -1.50586 c 0
 142.5 -1.50586 141.36 -0.366211 141.36 -0.366211 c 1
 110.58 23.5742 l 1
 108.3 -2.64648 101.46 -17.4658 95.7598 -17.4658 c 0
 94.6201 -17.4658 93.4805 -16.3262 92.3398 -16.3262 c 1
 57 11.0342 l 1
EndSplineSet
EndChar
StartChar: obase
Encoding: 41 -1 41
Width: 192
Flags: HW
TeX: 0 0 0 0
HStem: -473.822 17.1 -114.722 17.1 244.378 17.1 603.478 17.1
Fore
14.833 -42.0859 m 0
 3.43359 -42.0859 0.0136719 19.4736 0.0136719 37.7139 c 0
 0.0136719 55.9541 1.15332 83.3135 5.71387 100.414 c 0
 12.5537 127.774 33.0732 148.294 59.293 148.294 c 0
 90.0732 148.294 109.455 114.854 140.233 115.234 c 4
 167.571 115.571 167.143 145.714 169.991 151.141 c 1
 182.571 150.857 179.714 151.143 192 151.148 c 1
 194.839 132.545 192 79.4765 192 69.625 c 0
 192 51.3848 189.254 24.0342 185.833 6.93359 c 0
 178.993 -20.4258 157.333 -40.9463 132.254 -40.9463 c 0
 100.333 -40.9463 82.0938 -7.88574 51.3135 -7.88574 c 0
 17.1133 -7.88574 23.9531 -42.0859 14.833 -42.0859 c 0
EndSplineSet
EndChar
StartChar: pbase
Encoding: 42 -1 42
Width: 161
Flags: HW
TeX: 0 0 0 0
HStem: 536.228 15 221.228 15 -93.7716 15 -408.772 15
Fore
161 163.729 m 5
 161 11.29 l 6
 161 -14.9287 91.4004 -21.7686 80 -21.7686 c 4
 69.7402 -21.7686 0 -14.9629 0 11.2568 c 5
 0 146.894 l 5
 0.384766 156.013 7.86523 163.997 17.0254 163.997 c 5
 23.8652 163.997 44.3848 148.037 79.7246 148.037 c 4
 118.485 148.037 130.5 162.729 139 163.729 c 4
 140.905 163.952 161 163.729 161 163.729 c 5
EndSplineSet
EndChar
StartChar: idebilis
Encoding: 43 -1 43
Width: 97
VWidth: 2048
Flags: HW
TeX: 0 0 0 0
HStem: -466.54 17.1 -107.44 17.1 251.66 17.1 610.76 17.1
Fore
79.7998 -3.12012 m 0
 69.54 -3.12012 67.2598 6 49.0205 6 c 0
 30.7803 6 28.5 -3.12012 17.1006 -3.12012 c 0
 7.98047 -3.12012 0 4.86035 0 13.9805 c 2
 0 102.9 l 2
 0 118.86 27.3604 129.12 49.0205 129.12 c 0
 59.5713 129.12 65.4814 127.806 75 123 c 1
 75 150 l 1
 89 149 83.5 149 97 148.5 c 1
 97 13.9805 l 6
 97 4.86035 88.9199 -3.12012 79.7998 -3.12012 c 0
EndSplineSet
EndChar
StartChar: deminutus
Encoding: 44 -1 44
Width: 97
VWidth: 2048
Flags: HW
TeX: 0 0 0 0
HStem: 575.44 17.1 216.34 17.1 -142.76 17.1 -501.86 17.1
Fore
75 128.8 m 1
 75.2 136.4 75.0127 145 75 152.618 c 1
 94.0127 152.75 79 153 97 153.018 c 1
 97 23.0996 l 6
 97 7.13965 69.54 -3.12012 49.0205 -3.12012 c 0
 27.3604 -3.12012 0 7.13965 0 23.0996 c 2
 0 112.02 l 2
 0 121.14 7.98047 129.12 17.1006 129.12 c 0
 28.5 129.12 30.7803 120 49.0205 120 c 0
 67.2598 120 69.2537 123.2 75 128.8 c 1
EndSplineSet
EndChar
StartChar: rdeminutus
Encoding: 45 -1 45
Width: 97
VWidth: 2048
Flags: HW
TeX: 0 0 0 0
HStem: -410.831 15 -95.8305 15 219.17 15 534.169 15
Fore
75 22 m 1
 70.5537 28.4023 67.2598 29.8975 49.0205 29.8975 c 0
 30.7803 29.8975 28.5 20.7773 17.1006 20.7773 c 0
 7.98047 20.7773 0 28.7578 0 37.8779 c 2
 0 126.798 l 2
 0 142.758 27.3604 153.018 49.0205 153.018 c 0
 69.54 153.018 97 142.758 97 126.798 c 2
 97 -21.8418 l 5
 79 -21.8242 94.0127 -21.5742 75 -21.4424 c 1
 75 13.5 75 -11 75 22 c 1
EndSplineSet
EndChar
StartChar: auctusd2
Encoding: 46 -1 46
Width: 141
Flags: HW
TeX: 0 0 0 0
HStem: -409 15 -94 15 221 15 536 15
Fore
22 14.8174 m 1x40
 22 -13.3333 21.334 -4.66699 21.998 -19.541 c 1
 10 -20 10 -20.6667 0 -19.333 c 1
 0 160.681 l 1
 0 168.681 6 172.681 10 174.681 c 0
 30 180.681 50 183.681 70 183.681 c 0
 114 183.681 141 137.681 141 90.6807 c 2x80
 141 -41.3193 l 2
 141 -48.3193 134 -55.3193 126 -55.3193 c 0
 118 -55.3193 112 -48.3193 112 -41.3193 c 0
 112 -9.31934 98 22.6807 70 22.6807 c 0
 37 22.6807 34.6667 19.3333 22 14.8174 c 1x40
EndSplineSet
EndChar
StartChar: auctusa2
Encoding: 47 -1 47
Width: 161
Flags: HW
TeX: 0 0 0 0
HStem: -473.75 17.1 -114.65 17.1 244.45 17.1 603.55 17.1
Fore
143.64 218.011 m 0x40
 152.76 218.011 161 209.981 161 202 c 2x40
 161 51.5215 l 2
 161 -2.05957 129.96 -49.2207 79.7998 -49.2207 c 0
 65.7139 -49.2207 39.8096 -46.5352 22 -41.9004 c 1
 22 -49 22 -45.5 22 -49.5 c 1
 11.25 -49.75 10.5 -50 0 -49.75 c 1
 0 122.251 l 2x80
 0 131.371 7.98047 138.21 17.1006 138.21 c 0
 22.7998 138.21 42.1797 129.09 79.7998 129.09 c 0
 111.72 129.09 127.68 165.571 127.68 202.05 c 0
 127.68 210.031 134.521 218.011 143.64 218.011 c 0x40
EndSplineSet
EndChar
StartChar: porrectus1
Encoding: 48 -1 48
Width: 490
VWidth: 2048
Flags: HW
TeX: 0 0 0 0
HStem: -409 15 -94 15 221 15 536 15
Fore
0 -16 m 1
 0 155 l 2
 0 159.739 3.67916 157.34 7 154.75 c 0
 143.49 48.2977 249.871 -40.1758 468 -51.875 c 1
 468 -8.875 468 -51.875 468 -9 c 1
 478.125 -9 485.281 -8.90039 490 -9 c 1
 490 -189 l 2
 490 -191.229 489.69 -190.612 487.76 -190.591 c 0
 254 -188 136.5 -110 0 -16 c 1
EndSplineSet
EndChar
StartChar: porrectus2
Encoding: 49 -1 49
Width: 575
VWidth: 2048
Flags: HW
TeX: 0 0 0 0
HStem: -409 15 -94 15 221 15 536 15
Fore
0 -16 m 1
 0 155 l 2
 0 159.739 4.39911 158.063 7 154.75 c 0
 181.5 -67.5 330 -189 553 -219.875 c 5
 553 -176.875 553 -174.875 553 -132 c 5
 563.125 -132 570.281 -131.9 575 -132 c 5
 575 -357 l 6
 575 -359.229 574.68 -358.787 572.76 -358.591 c 4
 322.5 -333 154.5 -201 0 -16 c 1
EndSplineSet
EndChar
StartChar: porrectus3
Encoding: 50 -1 50
Width: 650
VWidth: 2048
Flags: HW
TeX: 0 0 0 0
HStem: -409 15 -94 15 221 15 536 15
Fore
0 -16 m 1
 0 155 l 2
 0 159.739 5.08372 158.501 7 154.75 c 0
 130 -86 270 -314 628 -362 c 1
 628 -319 628 -292.875 628 -250 c 1
 638.125 -250 645.281 -249.9 650 -250 c 1
 650 -479 l 2
 650 -481.229 649.661 -480.926 647.76 -480.591 c 0
 202 -402 116 -240 0 -16 c 1
EndSplineSet
EndChar
StartChar: porrectus4
Encoding: 51 -1 51
Width: 740
VWidth: 2048
Flags: HW
TeX: 0 0 0 0
HStem: -409 15 -94 15 221 15 536 15
Fore
0 -25 m 1
 0 172.5 l 2
 0 177.239 5.27441 176.092 7 172.25 c 0
 134 -110.5 367.502 -459.831 718.002 -536.331 c 5
 718.002 -493.331 718 -492.875 718 -450 c 1
 728.125 -450 735.281 -449.9 740 -450 c 1
 740 -679 l 2
 740 -681.229 739.615 -681.119 737.76 -680.591 c 0
 270 -547.5 75 -217.5 0 -25 c 1
EndSplineSet
EndChar
StartChar: porrectus5
Encoding: 52 -1 52
Width: 931
VWidth: 2048
Flags: HW
TeX: 0 0 0 0
HStem: -409 15 -94 15 221 15 536 15
Fore
0 -16 m 1
 0 155 l 2
 0 159.739 5.3553 158.627 7 154.75 c 0
 122.5 -117.5 382.5 -591 909 -711 c 1
 909 -668 909 -654.875 909 -612 c 1
 919.125 -612 926.281 -611.9 931 -612 c 1
 931 -841 l 2
 931 -843.229 930.646 -842.992 928.76 -842.591 c 0
 315 -712 70 -240 0 -16 c 1
EndSplineSet
EndChar
StartChar: porrectusflexus1
Encoding: 53 -1 53
Width: 340
VWidth: 2048
Flags: HW
TeX: 0 0 0 0
HStem: -409 15 -94 15 221 15 536 15
Fore
0 -16 m 1
 0 155 l 2
 0 159.739 3.67916 157.34 7 154.75 c 0
 143.49 48.2977 204 -6.125 318 -10 c 1
 318 33 318 -33.875 318 9 c 1
 328.125 9 335.281 9.09961 340 9 c 1
 340 -147.125 l 2
 340 -149.354 339.69 -148.775 337.76 -148.716 c 0
 187.5 -144.125 136.5 -110 0 -16 c 1
EndSplineSet
EndChar
StartChar: porrectusflexus2
Encoding: 54 -1 54
Width: 428
VWidth: 2048
Flags: HW
TeX: 0 0 0 0
HStem: -409 15 -94 15 221 15 536 15
Fore
0 -16 m 1
 0 155 l 2
 0 159.739 4.76959 158.322 7 154.75 c 0
 98 9 278 -160.625 406 -166 c 1
 406 -123 406 -188.375 406 -145.5 c 5
 416.125 -145.5 423.281 -145.4 428 -145.5 c 5
 428 -295.5 l 2
 428 -297.729 427.688 -297.188 425.76 -297.091 c 0
 265 -289 107 -166 0 -16 c 1
EndSplineSet
EndChar
StartChar: porrectusflexus3
Encoding: 55 -1 55
Width: 586
VWidth: 2048
Flags: HW
TeX: 0 0 0 0
HStem: -409 15 -94 15 221 15 536 15
Fore
0 -16 m 1
 0 155 l 2
 0 159.739 5.05344 158.485 7 154.75 c 0
 96 -16 328 -284 564 -328.5 c 1
 564 -285.5 564 -350.875 564 -308 c 1
 574.125 -308 581.281 -307.9 586 -308 c 1
 586 -458 l 2
 586 -460.229 585.679 -459.792 583.76 -459.591 c 0
 282 -428 86 -170 0 -16 c 1
EndSplineSet
EndChar
StartChar: porrectusflexus4
Encoding: 56 -1 56
Width: 670
VWidth: 2048
Flags: HW
TeX: 0 0 0 0
HStem: -409 15 -94 15 221 15 536 15
Fore
0 -16 m 1
 0 155 l 2
 0 159.739 5.13671 158.527 7 154.75 c 0
 109 -52 374 -402 648 -447.5 c 1
 648 -404.5 648 -469.875 648 -427 c 1
 658.125 -427 665.281 -426.9 670 -427 c 1
 670 -577 l 2
 670 -579.229 669.666 -578.888 667.76 -578.591 c 4
 305 -522 98 -214 0 -16 c 1
EndSplineSet
EndChar
StartChar: porrectusflexus5
Encoding: 57 -1 57
Width: 931
VWidth: 2048
Flags: HW
TeX: 0 0 0 0
HStem: -409 15 -94 15 221 15 536 15
Fore
0 -16 m 1
 0 155 l 2
 0 159.739 5.3553 158.627 7 154.75 c 0
 122.5 -117.5 382.5 -525 909 -645 c 5
 909 -602 909 -634.875 909 -592 c 5
 919.125 -592 926.281 -591.9 931 -592 c 5
 931 -775 l 6
 931 -777.229 930.646 -776.992 928.76 -776.591 c 4
 315 -646 70 -240 0 -16 c 1
EndSplineSet
EndChar
StartChar: _1025
Encoding: 58 -1 58
Width: 161
Flags: HW
TeX: 0 0 0 0
HStem: -409 15 -94 15 221 15 536 15
Fore
0 62.3301 m 1x80
 0 62.3291 l 1x80
 -0 78.2891 2.42285 113.989 16.1025 113.989 c 0
 17.2422 113.989 18.3818 112.85 19.5215 111.71 c 2
 29.7812 101.45 l 1
 33.2012 127.67 38.9014 142.49 44.6016 142.49 c 0
 45.7412 142.49 46.8809 141.351 48.0205 141.351 c 1
 79.9404 117.41 l 1
 82.2207 143.63 89.0605 158.45 94.7607 158.45 c 0
 95.9004 158.45 97.04 157.311 98.1797 157.311 c 1
 122.04 139.551 l 1
 135 139.98 136 154.98 138 164 c 1
 138 172 l 1x40
 128 178 117.49 187.69 78.7207 187.69 c 0
 43.3809 187.69 22.8711 171.73 16.0312 171.73 c 0
 6.87109 171.73 0.379883 179.39 0 188.5 c 2
 0 305.14 l 2
 0 331.359 68.7412 338.5 79.001 338.5 c 0
 90.4014 338.5 161 332.22 161 306 c 2
 160.998 103.33 l 2
 160.998 92 160.998 80.5303 160.998 69.1201 c 0
 160.998 53.1699 157.318 -1.50977 143.639 -1.50977 c 0
 142.499 -1.50977 141.359 -0.370117 141.359 -0.370117 c 1
 110.579 23.5703 l 1
 108.299 -2.64941 101.459 -17.4697 95.7588 -17.4697 c 0
 94.6191 -17.4697 93.4795 -16.3301 92.3398 -16.3301 c 1
 57 11.0303 l 1
 54.7197 -17.4697 47.8799 -33.4297 42.1797 -33.4297 c 0
 41.04 -33.4297 39.9004 -32.29 37.6201 -31.1504 c 1
 12.54 -6.07031 l 2
 4.55957 3.0498 0 34.9697 0 62.3301 c 1x80
EndSplineSet
EndChar
StartChar: _0021
Encoding: 59 -1 59
Width: 168
Flags: HW
TeX: 0 0 0 0
HStem: -472.609 17.1 -113.509 17.1 245.591 17.1 604.691 17.1
Fore
-9.87012 -24.1875 m 0
 6.08984 -24.1875 11.79 -53.8271 43.71 -53.8271 c 0
 112.11 -53.8271 48.2695 64.7324 -0.75 71.5723 c 1
 67.6504 174.173 l 2
 69.9297 178.733 74.4902 181.013 79.0498 181.013 c 0
 83.6104 181.013 88.1699 178.733 91.5898 174.173 c 2
 165.69 61.3125 l 1
 167.97 59.0322 167.97 55.6123 167.97 53.332 c 0
 167.97 51.0527 167.97 47.6328 165.69 45.3525 c 1
 91.5898 -67.5078 l 2
 80.1904 -83.4678 64.2305 -90.3076 47.1299 -90.3076 c 0
 3.80957 -90.3076 -26.9697 -50.4072 -26.9697 -40.1475 c 0
 -26.9697 -32.168 -18.9902 -24.1875 -9.87012 -24.1875 c 0
EndSplineSet
EndChar
StartChar: _0031
Encoding: 60 -1 60
Width: 178
Flags: HW
TeX: 0 0 0 0
HStem: -472.63 17.1 -113.53 17.1 245.57 17.1 604.67 17.1
Fore
0.129883 -25.7529 m 0
 16.0898 -25.7529 21.79 -55.3926 53.71 -55.3926 c 0
 58.2695 -55.3926 62.8301 -54.2529 66.25 -53.1133 c 1
 2.41016 43.7871 l 2
 0.129883 48.3467 -1.00977 55.1875 2.41016 59.7471 c 2
 77.6504 172.607 l 2
 79.9297 177.167 84.4902 179.447 89.0498 179.447 c 0
 93.6104 179.447 98.1699 177.167 101.59 172.607 c 2
 175.69 59.7471 l 1
 177.97 57.4668 177.97 54.0469 177.97 51.7676 c 0
 177.97 49.4873 177.97 46.0674 175.69 43.7871 c 1
 101.59 -69.0732 l 2
 95.8896 -75.9131 76.5098 -88.4531 53.71 -88.4531 c 0
 17.2305 -88.4531 -16.9697 -57.6729 -16.9697 -41.7129 c 0
 -16.9697 -33.7324 -8.99023 -25.7529 0.129883 -25.7529 c 0
EndSplineSet
EndChar
StartChar: _0022
Encoding: 61 -1 61
Width: 161
Flags: HW
TeX: 0 0 0 0
HStem: -409 15 -94 15 221 15 536 15
Fore
160.617 -355.627 m 5
 161 130.938 l 6
 161 157.157 91.4004 163.997 80 163.997 c 4
 69.7402 163.997 0 157.191 0 130.972 c 5
 0 -4.66504 l 5
 0.384766 -13.7842 7.86523 -21.7686 17.0254 -21.7686 c 5
 23.8652 -21.7686 44.3848 -5.80859 79.7246 -5.80859 c 4
 118.485 -5.80859 126.333 -9.33301 139 -21.5 c 5
 138.5 -352.5 l 5
 142.125 -355 160.617 -355.627 160.617 -355.627 c 5
EndSplineSet
EndChar
StartChar: _0014
Encoding: 62 -1 62
Width: 61
VWidth: 2048
Flags: HW
TeX: 0 0 0 0
HStem: -219.133 9 -30.1332 9 158.867 9 347.867 9
Fore
0 63.5645 m 24
 -0.263672 80.792 13.4404 95.4268 30.6699 95.3623 c 24
 47.8721 95.2979 60.7367 80.5361 61 63.3359 c 24
 61.2646 46.0684 48.6699 30.1621 31.668 30.1631 c 0
 12.8691 30.1631 0.274745 45.6162 0 63.5645 c 24
EndSplineSet
EndChar
StartChar: _0015
Encoding: 63 -1 63
Width: 61
VWidth: 2048
Flags: HW
TeX: 0 0 0 0
HStem: -409 15 -94 15 221 15 536 15
Fore
0 373 m 24
 -0.263672 390.228 13.4404 404.862 30.6699 404.798 c 24
 47.8721 404.733 60.7363 389.972 61 372.771 c 24
 61.2646 355.504 48.6699 339.598 31.668 339.599 c 0
 12.8691 339.599 0.274414 355.052 0 373 c 24
0 67.5645 m 28
 -0.263672 84.792 13.4404 99.4268 30.6699 99.3623 c 28
 47.8721 99.2979 60.7363 84.5361 61 67.3359 c 28
 61.2646 50.0684 48.6699 34.1621 31.668 34.1631 c 4
 12.8691 34.1631 0.274414 49.6162 0 67.5645 c 28
EndSplineSet
EndChar
StartChar: _0033
Encoding: 64 -1 64
Width: 36
VWidth: 1384
Flags: HW
TeX: 0 0 0 0
HStem: -587.8 21 -146.8 21 294.2 21 735.2 21
Fore
-6 81.4004 m 6
 -6 91.2002 5.2002 99.5996 15 99.5996 c 4
 24.7998 99.5996 36 91.2002 36 81.4004 c 6
 36 -5.40039 l 6
 36 -15.2002 24.7998 -23.5996 15 -23.5996 c 4
 5.2002 -23.5996 -6 -15.2002 -6 -5.40039 c 6
 -6 81.4004 l 6
EndSplineSet
EndChar
StartChar: _0013
Encoding: 65 -1 65
Width: 97
VWidth: 2048
Flags: HW
TeX: 0 0 0 0
HStem: -466.54 17.1 -107.44 17.1 251.66 17.1 610.76 17.1
Fore
17.1504 -3.12012 m 4
 8.03027 -3.12012 0.0498047 4.86035 0.0498047 13.9805 c 6
 0.0498047 102.9 l 6
 0.0498047 118.86 27.4102 129.12 47.9297 129.12 c 4
 69.5898 129.12 96.9502 118.86 96.9502 102.9 c 6
 96.9502 13.9805 l 6
 96.9502 4.86035 88.9697 -3.12012 79.8496 -3.12012 c 4
 68.4502 -3.12012 66.1699 6 47.9297 6 c 4
 29.6904 6 27.4102 -3.12012 17.1504 -3.12012 c 4
EndSplineSet
EndChar
StartChar: hepisemus_base
Encoding: 66 -1 66
Width: 1
VWidth: 2048
Flags: HW
TeX: 0 0 0 0
HStem: -409 15 -94 15 221 15 536 15
Fore
0 64 m 25
 0 79 l 29
 1 79 l 25
 1 64 l 25
 0 64 l 25
EndSplineSet
EndChar
StartChar: _4097
Encoding: 67 -1 67
Width: 161
Flags: HW
TeX: 0 0 0 0
HStem: -409 15 -94 15 221 15 536 15
Fore
0 11.2598 m 2x80
 0.000976562 118.159 l 2x80
 0.380859 127.279 7.87109 135.27 17.0312 135.27 c 0
 23.8711 135.27 44.3809 119.31 79.7207 119.31 c 0
 118.49 119.31 130.5 134 139 135 c 1
 139 162 l 1x40
 129 168 118.49 177.69 79.7207 177.69 c 0
 44.3809 177.69 23.8711 161.73 17.0312 161.73 c 0
 7.87109 161.73 0.380859 169.721 0.000976562 178.831 c 2
 0 299.971 l 2
 0 326.19 69.7402 333 80 333 c 0
 91.4004 333 161 326.16 161 299.94 c 2
 161 145.5 l 1
 161 11.29 l 2
 161 -14.9297 91.4004 -21.7695 80 -21.7695 c 0
 69.7402 -21.7695 0 -14.96 0 11.2598 c 2x80
EndSplineSet
EndChar
StartChar: _0062
Encoding: 68 -1 68
Width: 76
VWidth: 1124
Flags: HW
TeX: 0 0 0 0
HStem: -482.01 17.1 -122.91 17.1 236.19 17.1 595.29 17.1
Fore
0.30957 -21.0098 m 5
 0.30957 157.97 l 5
 18.5498 146.57 32.2305 126.05 53.8896 126.05 c 6
 56.1699 126.05 l 5
 56.1699 392.81 l 6
 56.1699 398.51 60.7305 401.93 66.4297 401.93 c 4
 72.1299 401.93 76.6904 398.51 76.6904 392.81 c 6
 76.6904 -52.9297 l 5
 53.8896 -52.9297 l 6
 32.2305 -52.9297 18.5498 -31.2695 0.30957 -21.0098 c 5
EndSplineSet
EndChar
StartChar: _0065
Encoding: 69 -1 69
Width: 76
VWidth: 1155
Flags: HW
TeX: 0 0 0 0
HStem: -450.51 17.1 -91.41 17.1 267.69 17.1 626.79 17.1
Fore
76.6904 -255.81 m 6
 76.6904 -261.51 72.1299 -264.93 66.4297 -264.93 c 4
 60.7305 -264.93 56.1699 -261.51 56.1699 -255.81 c 6
 56.1699 10.9502 l 5
 53.8896 10.9502 l 6
 32.2305 10.9502 18.5498 -9.57031 0.30957 -20.9697 c 5
 0.30957 158.01 l 5
 18.5498 168.27 32.2305 189.93 53.8896 189.93 c 6
 76.6904 189.93 l 5
 76.6904 -255.81 l 6
EndSplineSet
EndChar
StartChar: _0039
Encoding: 70 -1 70
Width: 99
VWidth: 1594
Flags: HW
TeX: 0 0 0 0
HStem: -652.764 23.94 -150.024 23.94 352.716 23.94 855.456 23.94
Fore
22.3555 -69.8779 m 4
 9.58691 -69.8779 0.0117188 -57.1094 0.0117188 -45.9365 c 4
 0.0117188 -42.7461 0.0117188 -37.958 3.2041 -34.7656 c 5
 46.2949 56.207 l 6
 51.083 64.1865 60.6602 70.5713 71.8311 70.5713 c 4
 87.792 70.5713 98.9629 56.207 98.9629 41.8418 c 4
 98.9629 37.0547 98.9629 32.2666 95.7705 29.0742 c 5
 43.1035 -57.1094 l 5
 39.9111 -65.0898 31.9316 -69.8779 22.3555 -69.8779 c 4
EndSplineSet
EndChar
StartChar: _0069
Encoding: 71 -1 71
Width: 99
VWidth: 1594
Flags: HW
TeX: 0 0 0 0
HStem: -652.764 23.94 -150.024 23.94 352.716 23.94 855.456 23.94
Fore
0.0595703 46.2236 m 4
 0.0595703 57.3965 9.63477 70.165 22.4033 70.165 c 4
 31.9795 70.165 39.959 65.377 43.1514 57.3965 c 5
 95.8184 -28.7871 l 5
 99.0107 -31.9795 99.0107 -36.7676 99.0107 -41.5547 c 4
 99.0107 -55.9199 87.8398 -70.2842 71.8789 -70.2842 c 4
 60.708 -70.2842 51.1309 -63.8994 46.3428 -55.9199 c 6
 3.25195 35.0527 l 5
 0.0595703 38.2451 0.0595703 43.0332 0.0595703 46.2236 c 4
EndSplineSet
EndChar
StartChar: _0070
Encoding: 72 -1 72
Width: 125
VWidth: 1583
Flags: HW
TeX: 0 0 0 0
HStem: -664.386 23.94 -161.646 23.94 341.094 23.94 843.834 23.94
Fore
95.7607 -11.6357 m 1
 95.7607 7.51758 81.3955 21.8809 62.2441 21.8809 c 0
 43.0928 21.8809 28.7275 7.51758 28.7275 -11.6357 c 1
 0 -11.6357 l 1
 0 23.4766 27.1318 50.6104 62.2441 50.6104 c 0
 97.3564 50.6104 124.488 23.4766 124.488 -11.6357 c 1
 95.7607 -11.6357 l 1
EndSplineSet
EndChar
StartChar: _0038
Encoding: 73 -1 73
Width: 124
VWidth: 1606
Flags: HW
TeX: 0 0 0 0
HStem: -641.142 23.94 -138.402 23.94 364.338 23.94 867.078 23.94
Fore
95.5166 11.623 m 1
 124.244 11.623 l 1
 124.244 -23.4893 97.1123 -50.623 62 -50.623 c 0
 26.8877 -50.623 -0.244141 -23.4893 -0.244141 11.623 c 1
 28.4834 11.623 l 1
 28.4834 -7.53027 42.8486 -21.8936 62 -21.8936 c 0
 81.1514 -21.8936 95.5166 -7.53027 95.5166 11.623 c 1
EndSplineSet
EndChar
StartChar: _0037
Encoding: 74 -1 74
Width: 124
VWidth: 1594
Flags: HW
TeX: 0 0 0 0
HStem: -652.764 23.94 -150.024 23.94 352.716 23.94 855.456 23.94
Fore
62 -33.5166 m 0
 79.5557 -33.5166 95.5166 -19.1514 95.5166 0 c 0
 95.5166 17.5557 81.1514 33.5166 62 33.5166 c 0
 44.4443 33.5166 28.4834 19.1514 28.4834 0 c 0
 28.4834 -17.5557 42.8486 -33.5166 62 -33.5166 c 0
62 62.2441 m 0
 95.5166 62.2441 124.244 36.708 124.244 0 c 0
 124.244 -33.5166 98.708 -62.2441 62 -62.2441 c 0
 28.4834 -62.2441 -0.244141 -36.708 -0.244141 0 c 0
 -0.244141 33.5166 25.292 62.2441 62 62.2441 c 0
EndSplineSet
EndChar
StartChar: _0003
Encoding: 75 -1 75
Width: 143
VWidth: 1107
Flags: W
TeX: 0 0 0 0
HStem: -499.02 17.1 -139.92 17.1 219.18 17.1 578.28 17.1
Fore
86.6406 291.006 m 0
 51.3008 291.006 20.5205 265.926 20.5205 234.006 c 0
 20.5205 202.086 51.3008 177.006 86.6406 177.006 c 0
 114.001 177.006 127.681 192.966 132.241 192.966 c 0
 140.221 192.966 143 125.74 143 107.5 c 0
 143 76.7197 139.081 26.5254 133.381 21.9658 c 0
 119.701 11.7061 103.741 6.00586 86.6406 6.00586 c 0
 53.5811 6.00586 9.12109 33.3662 2.28125 101.766 c 0
 1.14062 116.586 0.000976562 135.966 0.000976562 155.346 c 2
 0.000976562 312.666 l 2
 0.000976562 325.206 -9.11914 442.626 70.6807 460.866 c 0
 76.3809 462.006 82.0811 462.006 86.6406 462.006 c 0
 103.741 462.006 119.701 456.306 133.381 446.046 c 0
 142.501 439.206 143 361.64 143 360.5 c 4
 143 342.26 140.221 275.046 132.241 275.046 c 0
 127.681 275.046 114.001 291.006 86.6406 291.006 c 0
EndSplineSet
EndChar
StartChar: _0004
Encoding: 76 -1 76
Width: 299
VWidth: 1119
Flags: W
TeX: 0 0 0 0
HStem: -486.91 17.1 -127.81 17.1 231.29 17.1 590.39 17.1
Fore
242.82 303 m 0
 208.62 303 176.7 277.92 176.7 246 c 0
 176.7 214.08 208.62 189 242.82 189 c 0
 270.18 189 285 204.96 289.56 204.96 c 0
 297.54 204.96 299 137.604 299 119.363 c 0
 299 88.583 296.4 38.5195 290.7 33.96 c 0
 277.02 23.7002 259.92 18 243.96 18 c 0
 209.76 18 165.3 45.3604 159.6 113.76 c 0
 157.32 128.58 156.18 147.96 156.18 167.34 c 2
 156.18 324.66 l 2
 156.18 337.2 148.2 454.62 228 472.86 c 0
 233.7 474 238.26 474 243.96 474 c 0
 259.92 474 277.02 468.3 290.7 458.04 c 0
 299.82 451.2 299 373.504 299 372.364 c 4
 299 354.124 297.54 287.04 289.56 287.04 c 0
 285 287.04 270.18 303 242.82 303 c 0
10.2598 175.32 m 1
 2.28027 175.32 0 231.18 0 246 c 0
 0 259.68 1.13965 312.12 9.12012 316.68 c 0
 25.0801 326.94 43.3203 331.5 61.5596 331.5 c 0
 91.2002 331.5 116.28 320.1 133.38 301.86 c 0
 141.36 295.02 142.5 240.3 142.5 231.18 c 2
 142.5 -171.24 l 2
 142.5 -176.94 137.94 -181.5 132.24 -181.5 c 0
 126.54 -181.5 121.979 -176.94 121.979 -171.24 c 2
 121.979 168.48 l 1
 99.1797 186.72 74.0996 189 62.7002 189 c 0
 33.0596 189 10.2598 175.32 10.2598 175.32 c 1
EndSplineSet
EndChar
StartChar: _0016
Encoding: 77 -1 77
Width: 108
VWidth: 2048
Flags: HW
TeX: 0 0 0 0
HStem: -409 15 -94 15 221 15 536 15
Fore
0 -14 m 9
 37 76 l 17
 40.6667 82.3333 45.2422 87.001 54.0029 87 c 0
 63 86.999 68 82 71 76 c 13
 108 -16 l 17
 108 -21.1426 103.333 -22.333 99.002 -23.5 c 0
 90.8721 -25.6895 82.8571 -23.1429 80 -18 c 9
 54 40.999 l 25
 54 40.999 30.6667 -12 28 -18 c 1
 23.166 -24.5 16.5 -25.5 9 -23.5 c 0
 4.59668 -22.3252 0 -18.6667 0 -14 c 9
EndSplineSet
EndChar
StartChar: _0034
Encoding: 78 -1 78
Width: 161
VWidth: 1139
Flags: HW
TeX: 0 0 0 0
HStem: -80.29 33.06<61.95 77.91 61.95 89.31> 69.05 34.2<64.8 75.63 64.8 78.48>
VStem: -9.87 33.06<-54.07 -54.07 -54.07 59.93> 117.81 33.06<-54.07 59.93 59.93 59.93>
Fore
33.1904 -54.0703 m 5
 49.1504 -49.5098 63.9697 -47.2305 79.9297 -47.2305 c 4
 95.8896 -47.2305 111.85 -49.5098 127.81 -54.0703 c 5
 127.81 59.9297 l 5
 112.99 66.7695 97.0303 69.0498 79.9297 69.0498 c 4
 63.9697 69.0498 48.0098 66.7695 33.1904 59.9297 c 5
 33.1904 -54.0703 l 5
17.2305 -96.25 m 0
 8.11035 -96.25 0.129883 -88.2695 0.129883 -79.1504 c 2
 0.129883 70.1904 l 2
 0.129883 96.4102 69.6699 103.25 79.9297 103.25 c 0
 91.3301 103.25 160.87 96.4102 160.87 70.1904 c 2
 160.87 -79.1504 l 2
 160.87 -88.2695 152.89 -96.25 143.77 -96.25 c 0
 134.65 -96.25 118.69 -80.29 79.9297 -80.29 c 0
 44.5898 -80.29 24.0703 -96.25 17.2305 -96.25 c 0
EndSplineSet
EndChar
StartChar: _0035
Encoding: 79 -1 79
Width: 258
VWidth: 1139
Flags: HW
TeX: 0 0 0 0
VStem: -15.82 20.52<-101.46 101.46> 32.06 160.74<-78.66 70.68 -83.22 83.79> 221.3 20.52<-101.46 101.46>
Fore
257.82 -101.46 m 2
 257.82 -107.16 253.26 -111.72 247.56 -111.72 c 0
 241.86 -111.72 237.3 -107.16 237.3 -101.46 c 2
 237.3 101.46 l 2
 237.3 107.16 241.86 111.72 247.56 111.72 c 0
 253.26 111.72 257.82 107.16 257.82 101.46 c 2
 257.82 -101.46 l 2
20.7002 -101.46 m 6
 20.7002 -107.16 16.1396 -111.72 10.4404 -111.72 c 4
 4.74023 -111.72 0.179688 -107.16 0.179688 -101.46 c 6
 0.179688 101.46 l 6
 0.179688 107.16 4.74023 111.72 10.4404 111.72 c 4
 16.1396 111.72 20.7002 107.16 20.7002 101.46 c 6
 20.7002 -101.46 l 6
65.1602 -95.7598 m 0
 56.04 -95.7598 48.0596 -87.7803 48.0596 -78.6602 c 2
 48.0596 70.6797 l 2
 48.0596 96.9004 117.6 103.74 129 103.74 c 0
 139.26 103.74 208.8 96.9004 208.8 70.6797 c 2
 208.8 -78.6602 l 2
 208.8 -87.7803 200.82 -95.7598 192.84 -95.7598 c 0
 182.58 -95.7598 166.62 -79.7998 129 -79.7998 c 0
 90.2402 -79.7998 74.2803 -95.7598 65.1602 -95.7598 c 0
EndSplineSet
EndChar
StartChar: _0036
Encoding: 80 -1 80
Width: 258
VWidth: 1139
Flags: HW
TeX: 0 0 0 0
HStem: -79.8 33.06<105.02 120.98 105.02 131.81> 69.54 34.2<107.3 118.13 107.3 120.98>
VStem: -15.82 20.52<-101.46 101.46> 32.06 34.2<-53.58 -53.58 -53.58 60.42> 159.74 33.06<-53.58 60.42 60.42 60.42> 221.3 20.52<-101.46 101.46>
Fore
257.82 -101.46 m 2
 257.82 -107.16 253.26 -111.72 247.56 -111.72 c 0
 241.86 -111.72 237.3 -107.16 237.3 -101.46 c 2
 237.3 101.46 l 2
 237.3 107.16 241.86 111.72 247.56 111.72 c 0
 253.26 111.72 257.82 107.16 257.82 101.46 c 2
 257.82 -101.46 l 2
20.7002 -101.46 m 2
 20.7002 -107.16 16.1396 -111.72 10.4404 -111.72 c 0
 4.74023 -111.72 0.179688 -107.16 0.179688 -101.46 c 2
 0.179688 101.46 l 2
 0.179688 107.16 4.74023 111.72 10.4404 111.72 c 0
 16.1396 111.72 20.7002 107.16 20.7002 101.46 c 2
 20.7002 -101.46 l 2
82.2598 -53.5801 m 1
 97.0801 -49.0195 113.04 -46.7402 129 -46.7402 c 0
 144.96 -46.7402 160.92 -49.0195 175.74 -53.5801 c 1
 175.74 60.4199 l 1
 160.92 67.2598 144.96 69.54 129 69.54 c 0
 113.04 69.54 97.0801 67.2598 82.2598 60.4199 c 1
 82.2598 -53.5801 l 1
65.1602 -95.7598 m 0
 56.04 -95.7598 48.0596 -87.7803 48.0596 -78.6602 c 2
 48.0596 70.6797 l 2
 48.0596 96.9004 117.6 103.74 129 103.74 c 0
 139.26 103.74 208.8 96.9004 208.8 70.6797 c 2
 208.8 -78.6602 l 2
 208.8 -87.7803 200.82 -95.7598 192.84 -95.7598 c 0
 182.58 -95.7598 166.62 -79.7998 129 -79.7998 c 0
 90.2402 -79.7998 74.2803 -95.7598 65.1602 -95.7598 c 0
EndSplineSet
EndChar
StartChar: _0066
Encoding: 81 -1 81
Width: 706
VWidth: 2048
Flags: W
TeX: 0 0 0 0
HStem: -409 15 -94 15 221 15 536 15
Fore
206.925 -69.6523 m 0
 161.616 -52.828 204.018 61.5556 278.334 216 c 1
 199 216 l 1
 153 99 l 2
 148 86 141.273 66.9969 141 55 c 0
 140.5 33 135 17.5 156.5 14.5 c 1
 164.402 11.6777 161.846 5.29199 162.5 0 c 1
 15 0 l 1
 13.9604 4.33336 12.9571 8.66665 16 13 c 1
 64 15 76.7685 36.0978 139 183 c 2
 347 674 l 2
 351.75 684.75 361 685.25 367 674 c 2
 433.766 521.699 l 1
 473.572 604.556 505.803 684.391 520.25 761.5 c 0
 522.627 774.187 482.324 770.2 462.25 777.5 c 0
 440.25 785.5 434.25 795.5 434.25 819.5 c 0
 434.25 837.617 438.25 861.5 470.25 867.5 c 0
 489.027 871.021 521.518 859.958 534.25 845.5 c 0
 593.773 777.906 537.503 625.969 457.881 466.689 c 1
 616 106 l 2
 651 32 655.5 17.5 700.5 14.5 c 1
 705.99 10.6148 705.38 5.14805 706 0 c 1
 451 0 l 1
 451.189 5 449.733 10 455 15 c 1
 508 16 521 28 521 53 c 0
 521 67 514 93 502 120 c 2
 461 216 l 1
 323.905 216 l 1
 289.063 151.294 259.44 93.3475 243.25 49 c 0
 220.25 -14 230.5 -14.074 252.251 -24.665 c 0
 277.583 -36.9998 331.25 -47.667 326.91 -59.9971 c 1
 293.25 -90.333 224.917 -76.333 206.925 -69.6523 c 0
402.965 361.394 m 1
 346.145 257 l 1
 447 257 l 1
 402.965 361.394 l 1
380.198 415.368 m 1
 331 532 l 1
 216 257 l 1
 298.447 257 l 1
 380.198 415.368 l 1
EndSplineSet
EndChar
StartChar: _0067
Encoding: 82 -1 82
Width: 659
VWidth: 2048
Flags: W
TeX: 0 0 0 0
HStem: -409 15 -94 15 221 15 536 15
Fore
204 343 m 1
 352 346 438 371 438 488 c 0
 438 582 380 625 255 625 c 0
 215 625 204 617 204 589 c 2
 204 343 l 1
448.323 64.2877 m 1
 380.187 -75.4231 404.904 -72.5686 425.326 -82.5127 c 0
 450.658 -94.8475 504.325 -105.515 499.985 -117.845 c 1
 466.325 -148.181 397.992 -134.181 380 -127.5 c 0
 354.766 -118.13 358.402 -71.1455 370.575 -35.3477 c 0
 385.847 9.56305 403.686 53.6783 423.023 97.0292 c 1
 260 308 l 1
 204 306 l 1
 204 109 l 2
 204 37 217 24 294 19 c 1
 294 0 l 1
 17 0 l 1
 17 19 l 1
 92 25 102 37 102 120 c 2
 102 553 l 2
 102 624 92 635 17 643 c 1
 17 662 l 1
 293 662 l 2
 391 662 547 636 547 486 c 0
 547 348 407 327 366 319 c 1
 468.51 193.102 l 1
 559.578 376.411 663.74 545.749 693.325 703.652 c 0
 695.702 716.339 655.399 712.353 635.325 719.652 c 0
 613.325 727.652 607.325 737.652 607.325 761.652 c 0
 607.325 833.514 687.368 810.316 707.325 787.652 c 0
 798.767 683.811 616.932 380.917 496.975 158.143 c 1
 572 66 l 2
 601 32 621 22 659 19 c 1
 659 0 l 1
 498 0 l 1
 448.323 64.2877 l 1
EndSplineSet
EndChar
StartChar: _0068
Encoding: 83 -1 83
Width: 697
VWidth: 2048
Flags: W
TeX: 0 0 0 0
HStem: -409 15 -94 15 221 15 536 15
Fore
106.675 -75.1523 m 0
 81.4404 -65.7822 85.0773 -18.7979 97.25 17 c 0
 131.323 117.203 178.181 213.446 225.923 306.074 c 1
 122 538 l 2
 81.7268 627.878 70.999 645.667 21.999 647.667 c 1
 15.9766 649.238 16.0303 656.23 16 662 c 1
 255 662 l 1
 254.808 657.354 256.182 652.474 250.337 648.667 c 1
 237 648 221.674 643.333 217.674 641.333 c 0
 208.312 636.651 207 629 207 610 c 0
 207 595 215.323 572.145 248 499 c 2
 284.176 418.022 l 1
 345.526 536.473 399.928 648.868 420 756 c 0
 422.377 768.687 382.074 764.7 362 772 c 0
 340 780 334 790 334 814 c 0
 334 885.868 414.048 862.658 434 840 c 0
 505.439 758.874 410.082 556.255 307.746 365.265 c 1
 399 161 l 1
 546 528 l 2
 558 558 565 585 565 601 c 0
 565 629 547 640 492 643 c 1
 492 662 l 1
 697 662 l 1
 697 643 l 1
 649 640 637 630 605 550 c 2
 383 -11 l 1
 368 -11 l 1
 248.356 256.011 l 1
 203.109 173.094 162.904 98.0199 143 43.5 c 0
 120 -19.5 130.25 -19.5741 152.001 -30.165 c 0
 177.333 -42.4998 231 -53.167 226.66 -65.4971 c 1
 193 -95.833 124.667 -81.833 106.675 -75.1523 c 0
EndSplineSet
EndChar
StartChar: letterbar
Encoding: 84 -1 84
Width: 388
VWidth: 2048
Flags: W
TeX: 0 0 0 0
HStem: -409 15 -94 15 221 15 536 15
Fore
20.6748 -70.1523 m 0
 -4.55957 -60.7822 -0.922852 -13.7979 11.25 22 c 0
 104.25 295.5 292.5 539.5 334 761 c 0
 336.377 773.687 296.074 769.7 276 777 c 0
 254 785 248 795 248 819 c 0
 248 837.117 252 861 284 867 c 0
 302.777 870.521 335.269 859.458 348 845 c 0
 466 711 128.932 245.53 57 48.5 c 0
 34 -14.5 44.25 -14.5742 66.001 -25.165 c 0
 91.333 -37.5 145 -48.167 140.66 -60.4971 c 1
 107 -90.833 38.667 -76.833 20.6748 -70.1523 c 0
EndSplineSet
EndChar
